<svg width="190" height="78" viewBox="0 0 190 78" fill="none" xmlns="http://www.w3.org/2000/svg">
<path d="M171.876 20.9155H180.061L158.207 76.5438H150.022L157.174 58.2659H156.936L141.996 20.9155H150.181L161.148 48.2528L171.876 20.9155ZM167.346 17.4983H154.075L150.022 4.54492H157.095L160.75 16.1474L164.406 4.54492H171.479L167.346 17.4983Z" fill="#292929"/>
<path d="M42.3727 31.167C46.5051 34.3458 48.8097 38.955 48.8097 43.9615C48.8097 48.5707 47.1408 52.7031 44.0415 55.8024C40.7038 59.0606 36.0152 60.8884 30.6907 60.8884C30.4523 60.8884 30.2139 60.8884 29.8166 60.8884C26.5584 60.8884 17.5784 59.8553 10.4262 49.3654L17.2605 44.6767C22.9028 52.9415 29.4987 52.7031 30.055 52.6236H30.3729H30.6113C33.7106 52.6236 36.4125 51.67 38.2403 49.9217C39.7502 48.4118 40.5449 46.3456 40.5449 43.882C40.6244 41.498 39.4323 39.3523 37.4456 37.7629C34.9026 35.8557 31.4854 35.2994 28.0683 36.253L26.9557 32.2796L25.7637 28.3061C33.2337 26.1605 38.5582 21.7102 38.7171 19.0877C38.7171 17.2599 38.0814 15.5116 36.7304 14.0812C35.141 12.4918 32.9159 11.5382 30.6113 11.5382H30.2139L29.9755 11.4587C29.4192 11.4587 23.618 10.9024 19.0088 17.0215L12.4924 12.015C19.4856 2.71713 28.7835 3.11447 30.8497 3.27341C35.2999 3.35288 39.5913 5.18067 42.6111 8.35942C45.5514 11.3792 47.0613 15.2732 46.9024 19.4056C46.7435 23.1406 44.5978 26.7962 40.5449 29.975C41.1806 30.3723 41.8164 30.7697 42.3727 31.167ZM122.544 19.9619C133.987 19.9619 143.365 29.3392 143.365 40.7827C143.365 52.2263 133.987 61.6036 122.544 61.6036C111.021 61.6036 101.723 52.2263 101.723 40.7827C101.723 29.3392 111.021 19.9619 122.544 19.9619ZM122.544 53.3388C129.458 53.3388 135.1 47.6965 135.1 40.7827C135.1 33.8689 129.458 28.2267 122.544 28.2267C115.63 28.2267 109.988 33.8689 109.988 40.7827C109.988 47.6965 115.63 53.3388 122.544 53.3388Z" fill="#292929"/>
<path d="M79.3006 57.4449L85.2238 42.4391L65.1939 34.7444L59.2415 49.8241L51.6005 46.8887L65.9562 10.52L73.5972 13.4553L68.1993 27.1306L88.2292 34.8253L93.6563 21.0761L101.297 24.0115L86.9417 60.3803L79.3006 57.4449Z" fill="#292929"/>
<path d="M9.62509 74.6919V67.5362H15.4621V74.6919H14.2047V68.6709H10.8824V74.6919H9.62509ZM17.3019 74.6919V67.5362H20.1233C20.9547 67.5362 21.6157 67.7543 22.1064 68.1904C22.5971 68.6266 22.8424 69.2127 22.8424 69.9487C22.8424 70.7188 22.5698 71.3185 22.0246 71.7478C21.4862 72.1772 20.8048 72.3919 19.9801 72.3919H18.5592V74.6919H17.3019ZM18.5592 71.2572H20.021C20.4913 71.2572 20.8661 71.1379 21.1455 70.8994C21.4249 70.6609 21.5646 70.3474 21.5646 69.9589C21.5646 69.55 21.4249 69.2365 21.1455 69.0185C20.8729 68.7936 20.4981 68.6811 20.021 68.6811H18.5592V71.2572ZM30.2329 73.731C29.5241 74.4534 28.628 74.8146 27.5444 74.8146C26.4608 74.8146 25.5681 74.4568 24.8661 73.7412C24.1642 73.0256 23.8132 72.1499 23.8132 71.1141C23.8132 70.0918 24.1676 69.2195 24.8764 68.4971C25.5851 67.7747 26.4813 67.4135 27.5648 67.4135C28.6484 67.4135 29.5412 67.7713 30.2431 68.4869C30.9451 69.2025 31.296 70.0782 31.296 71.1141C31.296 72.1363 30.9416 73.0086 30.2329 73.731ZM25.8168 72.9234C26.2802 73.4141 26.8629 73.6594 27.5648 73.6594C28.2668 73.6594 28.8426 73.4141 29.2924 72.9234C29.749 72.4327 29.9773 71.8296 29.9773 71.1141C29.9773 70.4053 29.7456 69.8056 29.2822 69.3149C28.8256 68.8174 28.2463 68.5687 27.5444 68.5687C26.8425 68.5687 26.2632 68.814 25.8066 69.3047C25.3568 69.7954 25.1319 70.3985 25.1319 71.1141C25.1319 71.8228 25.3602 72.4259 25.8168 72.9234ZM35.8799 74.6919V67.5362H37.219L39.3964 70.9198L41.5738 67.5362H42.9129V74.6919H41.6555V69.5602L39.3964 72.9336H39.3555L37.1168 69.5807V74.6919H35.8799ZM44.7546 74.6919V67.5362H45.9915V72.7599L49.6103 67.5362H50.7858V74.6919H49.5489V69.4785L45.9404 74.6919H44.7546ZM52.641 74.6919V67.5362H53.8984V70.5109H57.3127V67.5362H58.57V74.6919H57.3127V71.6763H53.8984V74.6919H52.641ZM63.7299 74.8146C62.6941 74.8146 61.8286 74.4602 61.1335 73.7514C60.4383 73.0359 60.0908 72.1567 60.0908 71.1141C60.0908 70.0782 60.4383 69.2025 61.1335 68.4869C61.8286 67.7713 62.7111 67.4135 63.7811 67.4135C64.4012 67.4135 64.926 67.509 65.3553 67.6998C65.7915 67.8906 66.2004 68.1666 66.582 68.5278L65.7744 69.458C65.1338 68.8651 64.466 68.5687 63.7708 68.5687C63.0893 68.5687 62.5237 68.814 62.0739 69.3047C61.6309 69.7954 61.4095 70.3985 61.4095 71.1141C61.4095 71.8228 61.6344 72.4259 62.0841 72.9234C62.5339 73.4141 63.0962 73.6594 63.7708 73.6594C64.1797 73.6594 64.5409 73.5845 64.8544 73.4345C65.1679 73.2778 65.4916 73.0427 65.8255 72.7292L66.6331 73.547C66.231 73.9695 65.8051 74.2864 65.3553 74.4977C64.9055 74.7089 64.3637 74.8146 63.7299 74.8146ZM67.9547 74.6919V67.5362H69.212V71.1345L72.6161 67.5362H74.1597L71.1849 70.6132L74.2926 74.6919H72.7694L70.3263 71.4718L69.212 72.6167V74.6919H67.9547ZM78.4266 74.6919V67.5362H79.6635V72.7599L83.2823 67.5362H84.4579V74.6919H83.2209V69.4785L79.6124 74.6919H78.4266ZM89.3778 74.6919V67.5362H92.5876C93.4122 67.5362 94.0358 67.7475 94.4583 68.17C94.7786 68.4903 94.9388 68.8924 94.9388 69.3762C94.9388 70.085 94.598 70.6166 93.9165 70.9709C94.8638 71.2912 95.3374 71.8773 95.3374 72.7292C95.3374 73.3562 95.0989 73.84 94.6219 74.1808C94.1448 74.5215 93.5008 74.6919 92.6898 74.6919H89.3778ZM90.6147 70.5518H92.3321C92.7478 70.5518 93.0749 70.47 93.3134 70.3065C93.5587 70.1361 93.6814 69.8874 93.6814 69.5602C93.6814 69.274 93.5724 69.0525 93.3543 68.8958C93.1362 68.7322 92.8261 68.6505 92.4241 68.6505H90.6147V70.5518ZM90.6147 73.5777H92.7001C93.1362 73.5777 93.4736 73.4925 93.7121 73.3221C93.9574 73.1517 94.0801 72.903 94.0801 72.5759C94.0801 71.9353 93.5894 71.615 92.6081 71.615H90.6147V73.5777ZM96.7551 74.6919V67.5362H102.061V68.6607H98.0124V70.5212H101.601V71.6456H98.0124V73.5674H102.112V74.6919H96.7551ZM106.926 74.8146C105.89 74.8146 105.024 74.4602 104.329 73.7514C103.634 73.0359 103.286 72.1567 103.286 71.1141C103.286 70.0782 103.634 69.2025 104.329 68.4869C105.024 67.7713 105.907 67.4135 106.977 67.4135C107.597 67.4135 108.122 67.509 108.551 67.6998C108.987 67.8906 109.396 68.1666 109.778 68.5278L108.97 69.458C108.329 68.8651 107.662 68.5687 106.966 68.5687C106.285 68.5687 105.719 68.814 105.27 69.3047C104.827 69.7954 104.605 70.3985 104.605 71.1141C104.605 71.8228 104.83 72.4259 105.28 72.9234C105.73 73.4141 106.292 73.6594 106.966 73.6594C107.375 73.6594 107.737 73.5845 108.05 73.4345C108.364 73.2778 108.687 73.0427 109.021 72.7292L109.829 73.547C109.427 73.9695 109.001 74.2864 108.551 74.4977C108.101 74.7089 107.559 74.8146 106.926 74.8146ZM111.15 74.6919V67.5362H112.397V70.1123H114.043C114.861 70.1123 115.512 70.3099 115.996 70.7052C116.486 71.0936 116.732 71.6422 116.732 72.351C116.732 73.0733 116.49 73.6458 116.006 74.0683C115.522 74.484 114.864 74.6919 114.033 74.6919H111.15ZM112.397 73.5674H114.013C114.483 73.5674 114.844 73.4652 115.096 73.2608C115.355 73.0495 115.485 72.7428 115.485 72.3407C115.485 71.9727 115.355 71.6933 115.096 71.5025C114.837 71.3049 114.469 71.2061 113.992 71.2061H112.397V73.5674ZM121.113 74.6919V67.5362H122.452L124.63 70.9198L126.807 67.5362H128.146V74.6919H126.889V69.5602L124.63 72.9336H124.589L122.35 69.5807V74.6919H121.113ZM129.988 74.6919V67.5362H131.225V72.7599L134.844 67.5362H136.019V74.6919H134.782V69.4785L131.174 74.6919H129.988ZM137.874 74.6919V67.5362H140.696C141.527 67.5362 142.188 67.7543 142.679 68.1904C143.17 68.6266 143.415 69.2127 143.415 69.9487C143.415 70.7188 143.142 71.3185 142.597 71.7478C142.059 72.1772 141.377 72.3919 140.553 72.3919H139.132V74.6919H137.874ZM139.132 71.2572H140.593C141.064 71.2572 141.439 71.1379 141.718 70.8994C141.997 70.6609 142.137 70.3474 142.137 69.9589C142.137 69.55 141.997 69.2365 141.718 69.0185C141.445 68.7936 141.071 68.6811 140.593 68.6811H139.132V71.2572Z" fill="#292929"/>
</svg>
